<?xml version="1.0" encoding="UTF-8"?>
<svg width="752pt" height="752pt" version="1.1" viewBox="0 0 752 752" xmlns="http://www.w3.org/2000/svg">
 <path d="m589.02 587.06c-1.1602-2.4102-27.746-57.418-58.176-87.273 3.6211-4.6641 5.7148-10.641 3.5859-17.746-2.5469-8.4727-8.957-13.141-18.039-13.141-4.9492 0-8.9648 1.4141-9.6719 1.6797-0.46875 0.20312-2.293 1.0039-5.1445 2.2812-9.3359-14.008-79.16-119.06-86.895-138.62-4.4844-11.352-7.8242-31.25-11.059-50.496-2.7148-16.16-5.5234-32.867-9.0625-44.75-7.1523-24.031-27.371-69.219-52.547-68.656-7.2656 0.19531-10.699 3.4961-12.305 6.2305-5.3711 9.1719 1.793 24.375 10.273 40.469 0.94141 1.7852 1.7891 3.4062 2.4805 4.7812 2.7695 5.5508 5.8203 16.566 5.75 21.266-3.75-2.7422-9.4844-12.727-14.188-20.91-5.8281-10.152-12.441-21.656-19.977-29.555-2.2109-2.3203-4.4648-4.7656-6.7344-7.2266-14.91-16.164-30.336-32.879-43.516-25.465-4.0352 2.2656-6.7109 5.6445-7.7422 9.7852-2.1016 8.4258 3.2188 17.051 4.1055 18.383 0.35547 0.44531 35.543 45.027 46 65.809 0.40625 1.3516 0.14063 4.9062-0.47266 7.2188-3.5195-3.7305-9.0352-8.6953-15.902-14.875-12.043-10.836-28.535-25.668-43.113-42.102-13.418-15.117-25.348-22.137-35.465-20.824-6.6172 0.84766-10.84 5.1562-12.613 8.0586-3.918 3.9844-5.8398 8.5039-5.7148 13.445 0.22656 9.3828 7.957 20.406 24.312 34.695 21.203 18.523 53.363 51.977 55.574 61.172-2.6367-0.44531-9.8281-3.9453-28.926-21.527l-1.2695-1.1641c-3.8945-3.5664-51.512-38.965-69.035-28.949-5.9492 3.4062-9.3828 9.4023-9.4258 16.453-0.078125 11.266 8.25 23.188 21.707 31.113 4.1875 2.4609 10.105 5.707 16.945 9.4414 20.523 11.234 51.543 28.203 64.695 40.695 3.2578 3.0938 5.082 5.2461 6.1094 6.668-4.9102-0.625-28.652-3.7188-42.629-6.5078-8.6211-1.7227-29.363-4.6992-36.016 4.7812-3.2109 4.5781-2.6055 10.594 1.8008 17.867 21.211 35.039 96.344 27.117 107.12 25.773 17.703 7.5078 68.957 85.961 98.027 135.18-2.168 2.1016-4.0586 4.1562-5.5117 6.1406-3.1367 4.2812-5.2266 15.684-1.6875 22.672 2.0898 4.1211 5.8203 6.3867 10.504 6.3867 2.8906 0 6.0586-0.84375 9.6914-2.5859 1.6055-0.77344 3.6602-1.7852 6.0273-2.9688 3.8828 5.2578 12.199 15.277 29.836 36.238 0.9375 1.1133 2.2773 1.6875 3.6328 1.6875 1.0742 0 2.1562-0.36328 3.0469-1.1094 2.0039-1.6797 2.2656-4.668 0.57813-6.6719-11.016-13.094-23.043-27.609-28.492-34.496 29.273-14.957 82.977-43.344 87.645-45.809 2.0352-0.83203 4.4297-2.0938 6.7969-3.7422 29.363 28.633 56.281 84.32 56.555 84.898 0.80859 1.6992 2.5 2.6875 4.2656 2.6875 0.6875 0 1.3828-0.14844 2.0469-0.46875 2.3555-1.1328 3.3516-3.957 2.2148-6.3164zm-220.27-127.04c-45.742-68.75-58.723-72.738-62.992-74.055-0.66016-0.20312-1.3516-0.26562-2.0352-0.16016-0.78906 0.10938-79.73 10.527-98.898-21.145-2.5391-4.1914-2.7695-6.6367-2.1484-7.5234 2.1094-3.0039 13.953-3.418 26.406-0.9375 15.902 3.1758 43.062 6.5938 44.137 6.7266 3.7891 0.53125 8.5-0.29297 10.395-4.2227 2.8242-5.8398-3.2812-12.793-9.6289-18.82-14.047-13.34-44.465-29.988-66.68-42.133-6.7305-3.6836-12.562-6.8711-16.684-9.2969-12.641-7.4414-17.086-16.988-17.051-22.902 0.015625-2.5703 0.83203-6.1016 4.6562-8.2891 8.7617-5.0156 46.793 17.508 57.93 27.715l1.2539 1.1523c16.93 15.59 29.891 25.598 38.195 23.863 2.7578-0.58203 4.9141-2.3672 6.0742-5.0312 6.7734-15.516-55.613-70.254-58.273-72.578-13.824-12.082-20.918-21.434-21.074-27.793-0.0625-2.4922 0.96484-4.6172 3.3359-6.8984 0.33984-0.32812 0.67188-0.78125 0.89844-1.1992 0.074219-0.13281 1.8867-3.3438 5.9766-3.7969 3.8281-0.4375 12.449 1.2969 27.031 17.73 14.938 16.832 31.66 31.871 43.867 42.859 7.1328 6.418 12.77 11.488 15.922 14.949 5.2031 5.7031 9.8125 3.2578 11.102 2.3672 5.625-3.8633 6.332-16.578 4.2578-20.719-10.988-21.875-45.668-65.809-46.867-67.285-0.98047-1.5312-3.5703-6.7617-2.6133-10.598 0.25-1.0078 0.85547-2.5039 3.1875-3.8164 6.668-3.7422 21.266 12.078 31.926 23.629 2.3047 2.5 4.5977 4.9805 6.8438 7.3398 6.7422 7.0742 13.051 18.055 18.617 27.738 7.6055 13.242 13.617 23.703 20.844 25.895 4.9297 1.4922 7.7227-1.0234 8.6953-2.1719 6.8984-8.1758-4.2969-32.781-4.418-33.023-0.71484-1.4336-1.6016-3.1172-2.5781-4.9688-4.0781-7.7422-13.629-25.875-10.477-31.266 0.56641-0.96484 2.043-1.4883 4.375-1.5547 17.141-0.39453 35.488 35.93 43.227 61.902 3.375 11.324 6.1328 27.738 8.793 43.613 3.3164 19.73 6.7383 40.125 11.594 52.406 7.9805 20.207 74.691 120.7 86.977 139.13-21.148 9.832-61.191 29.504-83.73 47.348-4.8203-8.0977-21.559-35.914-40.367-64.184zm144.63 41.277c-0.15625 0.0625-0.30859 0.13281-0.46484 0.21484-0.73047 0.38281-64.254 33.977-92.633 48.348-0.003906 0-0.003906 0-0.007812 0.003906-0.003906 0-0.003906 0.003906-0.003906 0.003906-3.9219 1.9844-7.1836 3.6133-9.5 4.7266-2.8516 1.3633-4.6172 1.6523-5.5938 1.6523-1.2109 0-1.6367-0.39453-2.0352-1.1641-1.8203-3.5039-0.35156-11.105 0.86328-12.824 17.684-24.125 105.62-62.605 106.23-62.879 0.027344-0.007813 2.8633-1.0078 6.1719-1.0078 4.8672 0 7.6328 1.9766 8.9648 6.4023 1.5312 5.0898-1.2344 9.1211-4.4883 11.93-0.050781 0.050781-0.125 0.070312-0.17188 0.125-0.015625 0.015624-0.015625 0.03125-0.027344 0.046874-3.3047 2.7656-7.0078 4.3008-7.3047 4.4219z"/>
</svg>
