<?xml version="1.0" encoding="UTF-8"?>
<svg width="752pt" height="752pt" version="1.1" viewBox="0 0 752 752" xmlns="http://www.w3.org/2000/svg">
 <path d="m589.42 513.14c-0.20312-0.25391-20.266-25.914-30.148-43.789-4.8242-8.7188-10.184-13.16-15.367-17.465-6.2148-5.1523-12.086-10.016-16.969-23.164-0.13281-0.35938-0.37891-0.63281-0.58203-0.9375 0.71484-3.7695 1.0234-7.1172 0.78516-9.8594-1.3828-15.988-12.172-17.711-16.746-17.711-6.8477 0-13.164 3.2773-13.863 3.6523-0.74219 0.40234-1.3672 0.98828-1.8086 1.7109l-4.9062 8.0469c-76.195-49.227-128.29-95.977-150.79-135.43-0.85156-13.957-7.0781-95.891-36.074-108.7-7.1328-3.1445-14.785-2.0898-22.793 3.0625-6.3711-9.1602-17.113-19.676-31.105-14.984-5.2031 1.7461-9.1445 5.2422-11.391 10.117-2.9648 6.4219-2.668 14.289-1.5195 20.809-7.3984-2.9844-16.809-3.4297-26.047 3.9844-9.8281 7.8867-8.8945 19.535-5.4648 29.266-2.1797-1.1523-4.2227-2.0078-5.9023-2.3203-7.1445-1.3438-17.809 2.0664-23.453 11.008-3.1758 5.0312-6.5508 14.852 0.25391 29.742-2.6602-0.39453-5.2188-0.16406-7.2773 1.1445-6.1289 3.8867-10.324 11.238-11.223 19.668-1.207 11.328 3.5938 22.949 13.527 32.734 26.953 26.543 55.438 51.508 107.09 65.297 10.785 8.3242 132 102.02 156.7 124.2-4.5234 5.4727-11.75 15.992-9.5469 25.23 0.89062 3.7422 3.7031 8.7852 12.035 11.594 6.043 2.043 11.145 3.0312 15.57 3.0312 2.2461 0 4.2305-0.32031 6.1133-0.78125 9.3125 1.0547 32.469 6.1367 38.516 18.395 9.0625 18.395 27.102 33.023 27.871 33.633 0.875 0.69922 1.918 1.0469 2.9609 1.0469 1.3867 0 2.7617-0.60547 3.6953-1.7695 1.6367-2.0352 1.3125-5.0195-0.72266-6.6523-0.16406-0.13672-17.152-13.906-25.309-30.441-6.2383-12.645-22.949-18.73-34.625-21.527 2.9023-2.8984 5.6133-6.3867 8.5469-10.184l1.4023-1.8086c8.8008-11.312 31.75-51.832 41.68-81.191 4.875 8.6992 10.352 13.262 15.328 17.391 4.7188 3.9102 9.1719 7.6055 13.129 14.762 10.254 18.535 30.141 43.973 30.98 45.047 0.93359 1.1875 2.3242 1.8125 3.7305 1.8125 1.0234 0 2.0508-0.32812 2.918-1.0078 2.0625-1.6328 2.4219-4.6094 0.80859-6.668zm-308.44-143.04c-49.988-13.148-77.613-37.359-103.79-63.133-7.832-7.7109-11.648-16.578-10.754-24.977 0.69922-6.5742 4.0117-10.855 6.5742-12.531 1.5977-0.33203 7.0703 1.8438 11.32 4.5078 1.9258 1.207 4.4375 0.875 5.9805-0.78125 1.5469-1.6641 1.6992-4.1836 0.37109-6.0195-9.4688-13-12.094-24.246-7.4023-31.68 3.25-5.1367 9.6367-7.5117 13.711-6.75 2.875 0.53516 11.555 6.4297 17.949 11.582 1.8594 1.5 4.5508 1.3828 6.2695-0.28516 1.7188-1.668 1.9219-4.3477 0.48438-6.2578-0.17969-0.23828-17.754-24.211-5.668-33.914 12.105-9.7266 23.387 1.5586 24.621 2.8594 1.5547 1.6758 4.0781 1.9922 6 0.77734 1.9258-1.2227 2.707-3.6406 1.8672-5.7578-1.8438-4.6211-5.8398-18.328-2.2383-26.098 1.1797-2.543 3.0195-4.1641 5.8008-5.1016 9.7422-3.2734 18.168 7.6445 22.594 15.027l16.621 45.266c0.90625 2.457 3.6289 3.7266 6.0742 2.8125 2.457-0.89844 3.7109-3.6211 2.8125-6.0742l-13.355-36.363c0.28125-1 0.30859-2.0781-0.13281-3.1133-0.10937-0.24609-0.67578-1.543-1.6406-3.418 5.3047-3.4805 9.9414-4.3477 14.07-2.5195 20.875 9.2188 29.102 76.52 30.508 101.67 0.042969 0.71875 0.24609 1.4219 0.59766 2.0508 23.305 41.613 75.371 88.648 154.66 139.84l-44.977 73.789c-28.324-25.066-151.66-120.27-157.24-124.57-0.49609-0.39062-1.0742-0.67578-1.6875-0.83594zm192.39 147.05-1.4141 1.8281c-7.8438 10.141-11.645 14.621-19.559 14.621-3.3867 0-7.4922-0.82812-12.547-2.5273-5.1016-1.7188-5.6602-4.0508-5.8398-4.8164-1.3828-5.7734 6.3477-15.98 10.305-20.02 0.25391-0.26172 0.48438-0.54297 0.66797-0.85547l50.324-82.562c0.003906-0.003906 0.007812-0.007813 0.015625-0.015625 0.003906-0.003906 0.003906-0.007812 0.003906-0.015625l6.7539-11.082c1.6758-0.73438 5.0586-2.0234 8.3164-2.0234 2.1172 0 6.5273 0 7.3125 9.0586 1.7344 20.062-33.035 83.867-44.34 98.41z"/>
</svg>
