<?xml version="1.0" encoding="UTF-8"?>
<svg width="752pt" height="752pt" version="1.1" viewBox="0 0 752 752" xmlns="http://www.w3.org/2000/svg">
 <path d="m589.34 565.25c-0.35547-0.75781-8.9648-18.816-22.871-30.738-13.363-11.461-15.871-19.672-15.703-21.863 0.32031-4.2344-1.6719-8.4961-3.2812-11.203 1.7773-3.9688 2.5703-9.1836 2.043-16.309-0.70703-9.5469-6.7539-15.023-16.586-15.023-1.2031 0-2.4141 0.10547-3.6172 0.24609-17.23-17.797-109.31-115.72-121.2-128.38-0.94141-44.109-22.273-82.07-42.133-103.05-7.0938-7.4922-14.414-10.633-21.785-9.3242-9.293 1.6445-15.68 10.176-18.824 15.492-6.625-2.543-12.738-2.5938-18.238-0.17578-5.0859 2.2461-8.6602 6.2695-11.078 10.102-9.3906-17.008-23.266-36.395-35.727-53.809-6.0234-8.4258-11.723-16.383-16.527-23.523-9.9609-14.789-18.371-15.395-23.68-13.293-7.9453 3.1445-11.797 14.398-10.41 22.934 1.6641 10.23 13.352 27.391 26.887 47.262 3.6289 5.3281 7.3555 10.797 10.977 16.277 5.6055 8.4727 11.066 15.781 15.461 21.648 1.1562 1.5469 2.3594 3.1523 3.4961 4.6992-9.3438-5.2773-23.375-14.055-34.629-21.094-9.2617-5.7969-18.844-11.789-26.539-16.363-15.348-9.1289-26.383-11.641-33.742-7.6719-4.4141 2.3789-7 6.9883-7.2773 12.984-0.67188 14.469 22.168 31.273 32.02 37.824 11.469 7.6289 35.66 22.316 56.137 34.594-4.7578-0.35156-8.9648 0.15234-11.938 1.9805-3.0742 1.8906-4.8398 5.0312-4.9727 8.8398-0.55859 16.359 13.641 29.711 42.207 39.695 17.848 6.2422 35.531 9.1016 39.855 9.7461 38.289 22.965 68.059 72.895 89.832 109.42 2.5938 4.3477 5.0703 8.4883 7.4883 12.48-2.4492 3.1523-5.5234 8.4258-4.3867 14.223 0.98828 5.0391 4.7812 8.9375 11.234 11.621 1.8281 4.7188 7.7461 9.0039 14.402 13.785 3.4102 2.4531 6.9336 4.9883 8.3984 6.668 6.2969 7.2227 16.941 34.215 20.512 44.004 0.69531 1.918 2.5156 3.1133 4.4453 3.1133 0.53906 0 1.0859-0.09375 1.625-0.28906 2.457-0.89453 3.7227-3.6133 2.8281-6.0703-1.375-3.7695-13.684-37.129-22.27-46.98-2.1836-2.5117-5.9844-5.2422-10.008-8.1406-1.2461-0.89453-2.8633-2.0586-4.4805-3.2812 1.7812 0.085938 3.6328 0.14062 5.6484 0.14062 26.992 0 68.812-7.7812 81.199-11.992l1.8867-0.64062c5.6016-1.8945 10.711-3.6484 14.758-6.4531 0.33984 0.9375 0.59375 1.8438 0.53906 2.5508-0.59375 7.9375 6.5039 19.062 18.98 29.762 12.34 10.578 20.398 27.43 20.473 27.594 0.80859 1.7109 2.5117 2.7148 4.2852 2.7148 0.67578 0 1.3633-0.14844 2.0156-0.45313 2.3711-1.1055 3.3867-3.9219 2.2734-6.2891zm-267.66-196.12c-0.53906-0.31641-1.1406-0.52734-1.7617-0.60938-21.098-2.8711-75.668-15.629-74.84-39.875 0.027344-0.82812 0.23047-0.95312 0.46484-1.0938 4.8477-2.9844 25.469 3.0625 41.684 10.586 2.3008 1.0625 5.0117 0.14062 6.1836-2.0938 1.1758-2.2344 0.38672-4.9961-1.7852-6.2812-0.68359-0.40234-68.379-40.355-90.004-54.742-16.66-11.082-28.094-23.215-27.801-29.5 0.11719-2.6172 0.89453-4.3281 2.3047-5.0859 1.4492-0.78906 7.5195-2.5664 24.41 7.4727 7.6016 4.5234 17.141 10.484 26.355 16.254 43.352 27.121 47.562 28.859 51.758 26.367 1.4492-0.85547 2.4297-2.2461 2.7617-3.9023 0.84766-4.2422-2.5586-8.7891-10.773-19.781-4.3203-5.7734-9.6953-12.957-15.148-21.203-3.6523-5.5117-7.3984-11.02-11.047-16.383-11.82-17.352-24.039-35.297-25.363-43.449-0.80078-4.9336 1.5352-11.414 4.5469-12.605 2.1914-0.88672 6.5938 1.2461 12.336 9.7734 4.8867 7.2539 10.617 15.262 16.684 23.746 14.441 20.18 30.805 43.055 39.418 61.16 0.85156 1.7891 2.7148 2.8594 4.7109 2.6758 1.9766-0.17969 3.6328-1.582 4.1445-3.5 0.027344-0.097656 2.8359-10.316 10.094-13.488 3.8945-1.6992 8.6953-1.0703 14.281 1.8711 1.168 0.61719 2.543 0.71484 3.7852 0.27344 1.2461-0.4375 2.25-1.3789 2.7695-2.5859 1.4258-3.2969 7.0547-12.973 14.012-14.207 4.0508-0.6875 8.4961 1.4805 13.254 6.5117 18.902 19.965 39.223 56.324 39.566 98.48 0.007813 1.1875 0.46875 2.3359 1.2852 3.207 4.1445 4.4102 93.258 99.207 118.72 125.82-1.9414 0.6875-3.457 1.3242-4.1992 1.6641l-91.359 20.215c-2.4141-3.9922-4.8984-8.1328-7.4922-12.484-22.445-37.652-53.195-89.227-93.957-113.2zm201.32 137.73-1.9023 0.64844c-11.555 3.9297-52.512 11.484-78.145 11.484-9.7266 0-14.539-1.0742-16.867-1.9648-2.5586-0.98828-5.707-2.6523-6.1719-4.9453-0.47656-2.4023 1.7031-5.707 3.3594-7.5898l93.754-20.754c0.34766-0.082031 0.6875-0.19531 1.0039-0.34766 0.085938-0.039063 8.1758-3.8203 14.922-3.8203 5.5586 0 6.8516 2.3906 7.1406 6.25 0.47656 6.4531-0.050781 10.375-1.9336 13.133-0.097657 0.14062-0.23047 0.26172-0.31641 0.41016-2.5469 3.3242-7.2461 4.9297-14.844 7.4961z"/>
</svg>
